# xmcd CD database file
#
# Track frame offsets:
#	150
#	19545
#	40653
#	56736
#	74463
#	92243
#	109467
#	128745
#	143285
#	161935
#	180700
#	193715
#	207316
#	230381
#	250631
#	268821
#
# Disc length: 3836 seconds
#
# Revision: 2
# Processed by: cddbd v1.4PL0 Copyright (c) Steve Scherf et al.
# Submitted via: CDex 1.40Release
#
DISCID=e40efa10
DTITLE=Saylor&fultz - Padre Nuestro 1
DYEAR=1900
DGENRE=
TTITLE0=Padre Nuestro
TTITLE1=Michael Row The Boat
TTITLE2=Oh! Señor
TTITLE3=Amigo
TTITLE4=Gospel Party
TTITLE5=Es Mas Que Amor
TTITLE6=Jesus Cristo
TTITLE7=La Saeta
TTITLE8=Oh Happy Day
TTITLE9=Estare
TTITLE10=Con El
TTITLE11=Santo
TTITLE12=El Espiritu De Broadway
TTITLE13=Pon Tu Mano En La Mano
TTITLE14=Let It Be
TTITLE15=Credo
EXTD=
EXTT0=
EXTT1=
EXTT2=
EXTT3=
EXTT4=
EXTT5=
EXTT6=
EXTT7=
EXTT8=
EXTT9=
EXTT10=
EXTT11=
EXTT12=
EXTT13=
EXTT14=
EXTT15=
PLAYORDER=
